HIERARCHY
ROOT Hips
{
  OFFSET 5.80788e-005 67.184 3.4734
  CHANNELS 6 Xposition Yposition Zposition Zrotation Xrotation Yrotation
  JOINT Chest
  {
    OFFSET 0 8.7983 -4.7612
    CHANNELS 6 Xposition Yposition Zposition Zrotation Xrotation Yrotation
    JOINT Chest2
    {
      OFFSET 0 8.0291 0.4195
      CHANNELS 6 Xposition Yposition Zposition Zrotation Xrotation Yrotation
      JOINT Chest3
      {
        OFFSET 0 9.9351 -2.2114
        CHANNELS 6 Xposition Yposition Zposition Zrotation Xrotation Yrotation
        JOINT Neck
        {
          OFFSET 0 22.3885 -0.4656
          CHANNELS 6 Xposition Yposition Zposition Zrotation Xrotation Yrotation
          JOINT Head
          {
            OFFSET -0.0001 12.643 3.4389
            CHANNELS 6 Xposition Yposition Zposition Zrotation Xrotation Yrotation
            End Site
            {
              OFFSET 0.0001 17.6655 0.5274
            }
          }
        }
        JOINT LeftCollar
        {
          OFFSET 2.2603 21.606 7.4023
          CHANNELS 6 Xposition Yposition Zposition Zrotation Xrotation Yrotation
          JOINT LeftShoulder
          {
            OFFSET 13.5163 -1.1332 -5.0146
            CHANNELS 6 Xposition Yposition Zposition Zrotation Xrotation Yrotation
            JOINT LeftElbow
            {
              OFFSET -0.0995 -28.05 -0.2431
              CHANNELS 6 Xposition Yposition Zposition Zrotation Xrotation Yrotation
              JOINT LeftWrist
              {
                OFFSET 0.0679 -23.3996 -0.1402
                CHANNELS 6 Xposition Yposition Zposition Zrotation Xrotation Yrotation
                JOINT LeftFinger1
                {
                  OFFSET 0.7932 -9.069 2.5189
                  CHANNELS 6 Xposition Yposition Zposition Zrotation Xrotation Yrotation
                  JOINT LeftFinger11
                  {
                    OFFSET -0.8272 -3.3923 0.5977
                    CHANNELS 6 Xposition Yposition Zposition Zrotation Xrotation Yrotation
                    JOINT LeftFinger12
                    {
                      OFFSET -0.5649 -2.3158 0.4082
                      CHANNELS 6 Xposition Yposition Zposition Zrotation Xrotation Yrotation
                      End Site
                      {
                        OFFSET -0.4919 -1.6479 0.2673
                      }
                    }
                  }
                }
                JOINT LeftFinger2
                {
                  OFFSET 0.9159 -9.2044 0.2193
                  CHANNELS 6 Xposition Yposition Zposition Zrotation Xrotation Yrotation
                  JOINT LeftFinger21
                  {
                    OFFSET 0.0117 -4.1944 -0.0248
                    CHANNELS 6 Xposition Yposition Zposition Zrotation Xrotation Yrotation
                    JOINT LeftFinger22
                    {
                      OFFSET 0.0071 -2.3249 -0.0142
                      CHANNELS 6 Xposition Yposition Zposition Zrotation Xrotation Yrotation
                      End Site
                      {
                        OFFSET -0.1475 -2.0882 0.0028
                      }
                    }
                  }
                }
                JOINT LeftFinger3
                {
                  OFFSET 0.6113 -8.7231 -2.0637
                  CHANNELS 6 Xposition Yposition Zposition Zrotation Xrotation Yrotation
                  JOINT LeftFinger31
                  {
                    OFFSET -0.1927 -3.8059 -0.2383
                    CHANNELS 6 Xposition Yposition Zposition Zrotation Xrotation Yrotation
                    JOINT LeftFinger32
                    {
                      OFFSET -0.1091 -2.1688 -0.1362
                      CHANNELS 6 Xposition Yposition Zposition Zrotation Xrotation Yrotation
                      End Site
                      {
                        OFFSET -0.2358 -1.9176 -0.0906
                      }
                    }
                  }
                }
                JOINT LeftFinger4
                {
                  OFFSET -0.6151 -8.0947 -3.5641
                  CHANNELS 6 Xposition Yposition Zposition Zrotation Xrotation Yrotation
                  JOINT LeftFinger41
                  {
                    OFFSET -0.4882 -2.341 -0.6462
                    CHANNELS 6 Xposition Yposition Zposition Zrotation Xrotation Yrotation
                    JOINT LeftFinger42
                    {
                      OFFSET -0.3575 -1.7167 -0.4742
                      CHANNELS 6 Xposition Yposition Zposition Zrotation Xrotation Yrotation
                      End Site
                      {
                        OFFSET -0.4187 -1.5237 -0.3496
                      }
                    }
                  }
                }
                JOINT LeftFinger0
                {
                  OFFSET -1.42 -1.8761 1.4223
                  CHANNELS 6 Xposition Yposition Zposition Zrotation Xrotation Yrotation
                  JOINT LeftFinger01
                  {
                    OFFSET -1.1471 -3.4929 2.6334
                    CHANNELS 6 Xposition Yposition Zposition Zrotation Xrotation Yrotation
                    JOINT LeftFinger02
                    {
                      OFFSET -0.823 -2.3 1.6571
                      CHANNELS 6 Xposition Yposition Zposition Zrotation Xrotation Yrotation
                      End Site
                      {
                        OFFSET -0.5822 -1.6914 1.1582
                      }
                    }
                  }
                }
              }
            }
          }
        }
        JOINT RightCollar
        {
          OFFSET -2.2603 21.606 7.4023
          CHANNELS 6 Xposition Yposition Zposition Zrotation Xrotation Yrotation
          JOINT RightShoulder
          {
            OFFSET -13.5187 -1.1334 -5.0155
            CHANNELS 6 Xposition Yposition Zposition Zrotation Xrotation Yrotation
            JOINT RightElbow
            {
              OFFSET 0.0994 -28.0499 -0.2431
              CHANNELS 6 Xposition Yposition Zposition Zrotation Xrotation Yrotation
              JOINT RightWrist
              {
                OFFSET -0.0679 -23.3996 -0.1402
                CHANNELS 6 Xposition Yposition Zposition Zrotation Xrotation Yrotation
                JOINT RightFinger1
                {
                  OFFSET -0.7932 -9.0691 2.5189
                  CHANNELS 6 Xposition Yposition Zposition Zrotation Xrotation Yrotation
                  JOINT RightFinger11
                  {
                    OFFSET 0.8272 -3.3923 0.5977
                    CHANNELS 6 Xposition Yposition Zposition Zrotation Xrotation Yrotation
                    JOINT RightFinger12
                    {
                      OFFSET 0.565 -2.3158 0.4082
                      CHANNELS 6 Xposition Yposition Zposition Zrotation Xrotation Yrotation
                      End Site
                      {
                        OFFSET 0.4919 -1.6479 0.2673
                      }
                    }
                  }
                }
                JOINT RightFinger2
                {
                  OFFSET -0.916 -9.2044 0.2193
                  CHANNELS 6 Xposition Yposition Zposition Zrotation Xrotation Yrotation
                  JOINT RightFinger21
                  {
                    OFFSET -0.0117 -4.1944 -0.0248
                    CHANNELS 6 Xposition Yposition Zposition Zrotation Xrotation Yrotation
                    JOINT RightFinger22
                    {
                      OFFSET -0.0071 -2.3249 -0.0142
                      CHANNELS 6 Xposition Yposition Zposition Zrotation Xrotation Yrotation
                      End Site
                      {
                        OFFSET 0.1475 -2.0882 0.0028
                      }
                    }
                  }
                }
                JOINT RightFinger3
                {
                  OFFSET -0.6113 -8.7231 -2.0637
                  CHANNELS 6 Xposition Yposition Zposition Zrotation Xrotation Yrotation
                  JOINT RightFinger31
                  {
                    OFFSET 0.1927 -3.8059 -0.2383
                    CHANNELS 6 Xposition Yposition Zposition Zrotation Xrotation Yrotation
                    JOINT RightFinger32
                    {
                      OFFSET 0.1091 -2.1688 -0.1362
                      CHANNELS 6 Xposition Yposition Zposition Zrotation Xrotation Yrotation
                      End Site
                      {
                        OFFSET 0.2358 -1.9176 -0.0906
                      }
                    }
                  }
                }
                JOINT RightFinger4
                {
                  OFFSET 0.6151 -8.0947 -3.564
                  CHANNELS 6 Xposition Yposition Zposition Zrotation Xrotation Yrotation
                  JOINT RightFinger41
                  {
                    OFFSET 0.4882 -2.341 -0.6462
                    CHANNELS 6 Xposition Yposition Zposition Zrotation Xrotation Yrotation
                    JOINT RightFinger42
                    {
                      OFFSET 0.3574 -1.7166 -0.4742
                      CHANNELS 6 Xposition Yposition Zposition Zrotation Xrotation Yrotation
                      End Site
                      {
                        OFFSET 0.4187 -1.5237 -0.3496
                      }
                    }
                  }
                }
                JOINT RightFinger0
                {
                  OFFSET 1.4199 -1.8761 1.4221
                  CHANNELS 6 Xposition Yposition Zposition Zrotation Xrotation Yrotation
                  JOINT RightFinger01
                  {
                    OFFSET 1.1472 -3.4929 2.6336
                    CHANNELS 6 Xposition Yposition Zposition Zrotation Xrotation Yrotation
                    JOINT RightFinger02
                    {
                      OFFSET 0.8229 -2.3 1.6571
                      CHANNELS 6 Xposition Yposition Zposition Zrotation Xrotation Yrotation
                      End Site
                      {
                        OFFSET 0.5822 -1.6914 1.1582
                      }
                    }
                  }
                }
              }
            }
          }
        }
      }
    }
  }
  JOINT RightHip
  {
    OFFSET -9.412 3.9771 -0.7758
    CHANNELS 6 Xposition Yposition Zposition Zrotation Xrotation Yrotation
    JOINT RightKnee
    {
      OFFSET -0.7531 -40.938 0
      CHANNELS 6 Xposition Yposition Zposition Zrotation Xrotation Yrotation
      JOINT RightAnkle
      {
        OFFSET 0 -40.1986 0
        CHANNELS 6 Xposition Yposition Zposition Zrotation Xrotation Yrotation
        JOINT RightToe
        {
          OFFSET 0 -4.4182 9.239
          CHANNELS 6 Xposition Yposition Zposition Zrotation Xrotation Yrotation
          End Site
          {
            OFFSET 0 0 6.1981
          }
        }
      }
    }
  }
  JOINT LeftHip
  {
    OFFSET 9.4119 3.9773 -0.7758
    CHANNELS 6 Xposition Yposition Zposition Zrotation Xrotation Yrotation
    JOINT LeftKnee
    {
      OFFSET 0.7532 -40.9383 0
      CHANNELS 6 Xposition Yposition Zposition Zrotation Xrotation Yrotation
      JOINT LeftAnkle
      {
        OFFSET 0 -40.1986 0
        CHANNELS 6 Xposition Yposition Zposition Zrotation Xrotation Yrotation
        JOINT LeftToe
        {
          OFFSET 0 -4.4182 9.239
          CHANNELS 6 Xposition Yposition Zposition Zrotation Xrotation Yrotation
          End Site
          {
            OFFSET 0 0 6.1981
          }
        }
      }
    }
  }
}
MOTION
Frames:	4
Frame Time:	0.0333333
5.80788e-005 67.184 3.4734 0 0 -0 0 8.7983 -4.7612 0 0 -0 0 8.0291 0.4195 0 0 -0 0 9.9351 -2.2114 0 0 -0 0 22.3885 -0.4656 -0 0 0.00599323 -0.0001 12.643 3.4389 0 0 -0 2.2603 21.606 7.4023 0 0 -12.4954 13.5163 -1.1332 -5.0146 88.1196 14.2451 10.6914 -0.0995 -28.05 -0.2431 -0.00159367 -0.00239376 0.000738453 0.0679 -23.3996 -0.1402 -8.42822e-005 7.03872e-005 -7.27232e-007 0.7932 -9.069 2.5189 -0 -1.98785e-016 -0 -0.8272 -3.3923 0.5977 1.49089e-016 -3.97569e-016 1.59028e-015 -0.5649 -2.3158 0.4082 3.97569e-016 -1.98785e-016 -0 0.9159 -9.2044 0.2193 -0 -1.98785e-016 -0 0.0117 -4.1944 -0.0248 -0.0128247 0.00232725 8.6223e-005 0.0071 -2.3249 -0.0142 4.47266e-016 -3.97569e-016 -0 0.6113 -8.7231 -2.0637 -0 -1.98785e-016 -0 -0.1927 -3.8059 -0.2383 -0.0160348 0.00299288 0.000856004 -0.1091 -2.1688 -0.1362 -3.47873e-016 -3.97569e-016 -1.59028e-015 -0.6151 -8.0947 -3.5641 -0 -1.98785e-016 -0 -0.4882 -2.341 -0.6462 -0.0125866 0.00312087 0.00282552 -0.3575 -1.7167 -0.4742 -1.49089e-016 3.97569e-016 1.59028e-015 -1.42 -1.8761 1.4223 -0 -1.98785e-016 -0 -1.1471 -3.4929 2.6334 1.49089e-016 -3.97569e-016 1.59028e-015 -0.823 -2.3 1.6571 3.97569e-016 -1.98785e-016 -0 -2.2603 21.606 7.4023 -0.865661 0.165729 7.04459 -13.5187 -1.1334 -5.0155 -88.0329 10.2057 -10.5567 0.0994 -28.0499 -0.2431 0.00157301 -0.00248645 -0.000787991 -0.0679 -23.3996 -0.1402 6.52513e-005 3.86626e-005 1.05041e-005 -0.7932 -9.0691 2.5189 9.93923e-017 -1.19271e-015 -0 0.8272 -3.3923 0.5977 -1.98785e-016 -3.97569e-016 1.59028e-015 0.565 -2.3158 0.4082 -0 -3.97569e-016 -0 -0.916 -9.2044 0.2193 9.93923e-017 -1.19271e-015 -0 -0.0117 -4.1944 -0.0248 0.0129471 0.00231624 -8.52245e-005 -0.0071 -2.3249 -0.0142 -1.98785e-016 0 -0 -0.6113 -8.7231 -2.0637 9.93923e-017 -1.19271e-015 -0 0.1927 -3.8059 -0.2383 0.0163174 0.0030318 -0.00087169 0.1091 -2.1688 -0.1362 -1.98785e-016 7.95139e-016 -3.18055e-015 0.6151 -8.0947 -3.564 9.93923e-017 -1.19271e-015 -0 0.4882 -2.341 -0.6462 0.0146103 0.00368741 -0.00326732 0.3574 -1.7166 -0.4742 -2.98177e-016 3.97569e-016 1.59028e-015 1.4199 -1.8761 1.4221 9.93923e-017 -1.19271e-015 -0 1.1472 -3.4929 2.6336 -1.98785e-016 -3.97569e-016 1.59028e-015 0.8229 -2.3 1.6571 -0 -3.97569e-016 -0 -9.412 3.9771 -0.7758 3.42485 1.36937 -0.0640303 -0.7531 -40.938 0 0.000136572 0.69354 0.00145564 1.77636e-015 -40.1986 -1.11022e-016 -3.42573 -2.06297 -0.0607933 8.88178e-016 -4.4182 9.239 -3.19502e-024 0 -1.48106e-024 9.4119 3.9773 -0.7758 -3.42498 1.36123 0.0639712 0.7532 -40.9383 2.22045e-016 -6.769e-005 0.712612 -0.0012277 8.88179e-016 -40.1986 0 3.42582 -2.07388 0.0612819 -8.88178e-016 -4.4182 9.239 2.55305e-023 0 -2.31416e-026 
39.8407 28.5406 39.4005 -3.03748e-007 63.9974 2.33301e-007 -7.10543e-015 8.7983 -4.7612 -0.411855 10.7978 -0.0149914 0 8.0291 0.4195 -0.843941 21.5954 0.0521544 0 9.9351 -2.2114 -0.843943 21.5955 0.0521547 7.10543e-015 22.3885 -0.4656 1.13571e-005 -0.365754 1.27286e-006 -0.0001 12.643 3.4389 3.8743e-007 -0.358462 3.36993e-007 2.2603 21.606 7.4023 -13.9407 -3.84538 -8.43549 13.5163 -1.1332 -5.0146 155.949 -52.8166 42.7111 -0.0995 -28.05 -0.2431 3.36502 -15.2149 10.0322 0.0679 -23.3996 -0.1402 59.6402 -8.02202 6.62032 0.7932 -9.069 2.5189 1.55928e-006 3.11303e-006 -1.38914e-007 -0.8272 -3.3923 0.5977 -1.55928e-006 -3.11303e-006 1.38914e-007 -0.5649 -2.3158 0.4082 1.55928e-006 3.11303e-006 -1.38914e-007 0.9159 -9.2044 0.2193 1.55928e-006 3.11303e-006 -1.38914e-007 0.0117 -4.1944 -0.0248 -0.0128007 0.00232331 9.04445e-005 0.0071 -2.3249 -0.0142 8.6824e-007 -5.08904e-006 -6.45532e-006 0.6113 -8.7231 -2.0637 1.55928e-006 3.11303e-006 -1.38914e-007 -0.1927 -3.8059 -0.2383 -0.016016 0.00299414 0.000856083 -0.1091 -2.1688 -0.1362 1.70976e-006 -6.70005e-006 -1.03583e-005 -0.6151 -8.0947 -3.5641 1.55928e-006 3.11303e-006 -1.38914e-007 -0.4882 -2.341 -0.6462 -0.0125481 0.00311286 0.00281176 -0.3575 -1.7167 -0.4742 1.55914e-006 3.05821e-006 -1.38796e-007 -1.42 -1.8761 1.4223 1.55928e-006 3.11303e-006 -1.38914e-007 -1.1471 -3.4929 2.6334 -1.55928e-006 -3.11303e-006 1.38914e-007 -0.823 -2.3 1.6571 1.55928e-006 3.11303e-006 -1.38914e-007 -2.2603 21.606 7.4023 13.0837 -3.61842 2.91231 -13.5187 -1.1334 -5.0155 -161.588 -52.8953 -50.8961 0.0994 -28.0499 -0.2431 -3.20344 -15.0472 -10.3174 -0.0679 -23.3996 -0.1402 -59.6377 -7.19091 -7.78708 -0.7932 -9.0691 2.5189 7.72843e-006 -1.45682e-005 8.90607e-006 0.8272 -3.3923 0.5977 -5.5212e-006 6.45281e-006 -1.57955e-005 0.565 -2.3158 0.4082 3.18055e-015 0 3.97569e-016 -0.916 -9.2044 0.2193 7.72843e-006 -1.45682e-005 8.90607e-006 -0.0117 -4.1944 -0.0248 0.0129103 0.00232087 -8.91392e-005 -0.0071 -2.3249 -0.0142 8.27607e-032 3.97569e-015 -1.19271e-015 -0.6113 -8.7231 -2.0637 7.72843e-006 -1.45682e-005 8.90607e-006 0.1927 -3.8059 -0.2383 0.016377 0.00305972 -0.00087729 0.1091 -2.1688 -0.1362 2.82836e-006 -2.92937e-006 -7.03628e-007 0.6151 -8.0947 -3.564 7.72843e-006 -1.45682e-005 8.90607e-006 0.4882 -2.341 -0.6462 0.014573 0.00367991 -0.003267 0.3574 -1.7166 -0.4742 -6.49744e-007 -4.86146e-006 6.66664e-006 1.4199 -1.8761 1.4221 7.72843e-006 -1.45682e-005 8.90607e-006 1.1472 -3.4929 2.6336 -5.5212e-006 6.45281e-006 -1.57955e-005 0.8229 -2.3 1.6571 3.18055e-015 0 3.97569e-016 -9.412 3.9771 -0.7758 -16.1096 -65.9434 -21.2697 -0.7531 -40.938 -7.10543e-015 -168.692 76.2347 168.068 0 -40.1986 0 -11.0875 45.1495 2.7452 -3.55271e-015 -4.4182 9.239 -1.17438e-007 5.8778e-007 5.8947e-007 9.4119 3.9773 -0.7758 16.0669 -65.9562 21.1302 0.7532 -40.9383 0 169.096 76.2282 -168.446 -7.10543e-015 -40.1986 0 11.071 45.1368 -2.76992 0 -4.4182 9.239 -4.74652e-007 -2.80226e-006 -7.06373e-007 
39.8407 28.61 39.2772 -9.16488e-008 64.4413 7.37005e-008 0 8.7983 -4.7612 -0.41109 10.5026 -0.0193469 7.10543e-015 8.0291 0.4195 -0.84029 21.0052 0.0405445 0 9.9351 -2.2114 -0.840292 21.0052 0.040545 7.10543e-015 22.3885 -0.4656 9.68413e-006 -0.54487 1.42904e-006 -0.0001 12.643 3.4389 -0.0339267 -0.560109 -0.0108565 2.2603 21.606 7.4023 -14.2486 -3.06681 -7.96015 13.5163 -1.1332 -5.0146 156.37 -52.9525 43.0452 -0.0995 -28.05 -0.2431 3.36499 -15.2148 10.0322 0.0679 -23.3996 -0.1402 59.3721 -8.12649 6.50044 0.7932 -9.069 2.5189 9.54166e-015 -7.95139e-016 1.59028e-015 -0.8272 -3.3923 0.5977 6.36111e-015 -7.95139e-016 3.18055e-015 -0.5649 -2.3158 0.4082 6.36111e-015 -7.95139e-016 1.98785e-015 0.9159 -9.2044 0.2193 9.54166e-015 -7.95139e-016 1.59028e-015 0.0117 -4.1944 -0.0248 -0.0128013 0.00230186 7.28109e-005 0.0071 -2.3249 -0.0142 3.18055e-015 3.18055e-015 -2.38542e-015 0.6113 -8.7231 -2.0637 9.54166e-015 -7.95139e-016 1.59028e-015 -0.1927 -3.8059 -0.2383 -0.0160121 0.0029722 0.000842383 -0.1091 -2.1688 -0.1362 -5.51738e-033 -7.95139e-016 -3.97569e-016 -0.6151 -8.0947 -3.5641 9.54166e-015 -7.95139e-016 1.59028e-015 -0.4882 -2.341 -0.6462 -0.0125741 0.00311526 0.00281339 -0.3575 -1.7167 -0.4742 2.20695e-032 1.59028e-015 -7.95139e-016 -1.42 -1.8761 1.4223 9.54166e-015 -7.95139e-016 1.59028e-015 -1.1471 -3.4929 2.6334 6.36111e-015 -7.95139e-016 3.18055e-015 -0.823 -2.3 1.6571 6.36111e-015 -7.95139e-016 1.98785e-015 -2.2603 21.606 7.4023 13.3402 -2.82216 2.53775 -13.5187 -1.1334 -5.0155 -161.955 -52.9788 -51.1916 0.0994 -28.0499 -0.2431 -3.20344 -15.0472 -10.3175 -0.0679 -23.3996 -0.1402 -59.3825 -7.30934 -7.68749 -0.7932 -9.0691 2.5189 -3.18055e-015 -7.95139e-016 -7.95139e-016 0.8272 -3.3923 0.5977 -9.54166e-015 0 -7.95139e-016 0.565 -2.3158 0.4082 -3.18055e-015 -3.97569e-015 -1.59028e-015 -0.916 -9.2044 0.2193 -3.18055e-015 -7.95139e-016 -7.95139e-016 -0.0117 -4.1944 -0.0248 0.0129651 0.00230422 -7.78339e-005 -0.0071 -2.3249 -0.0142 -6.36111e-015 -5.56597e-015 -1.15295e-014 -0.6113 -8.7231 -2.0637 -3.18055e-015 -7.95139e-016 -7.95139e-016 0.1927 -3.8059 -0.2383 0.0163617 0.00303474 -0.000876866 0.1091 -2.1688 -0.1362 -9.54166e-015 -3.18055e-015 2.38542e-015 0.6151 -8.0947 -3.564 -3.18055e-015 -7.95139e-016 -7.95139e-016 0.4882 -2.341 -0.6462 0.0145702 0.00366565 -0.00324936 0.3574 -1.7166 -0.4742 1.65521e-032 2.38542e-015 -3.97569e-016 1.4199 -1.8761 1.4221 -3.18055e-015 -7.95139e-016 -7.95139e-016 1.1472 -3.4929 2.6336 -9.54166e-015 0 -7.95139e-016 0.8229 -2.3 1.6571 -3.18055e-015 -3.97569e-015 -1.59028e-015 -9.412 3.9771 -0.7758 -16.4828 -66.547 -21.6566 -0.7531 -40.938 0 -168.692 76.2332 168.069 0 -40.1986 -1.77636e-015 -11.0873 45.149 2.74518 0 -4.4182 9.239 1.70357e-007 4.79163e-006 -4.46818e-007 9.4119 3.9773 -0.7758 16.4269 -66.5602 21.5037 0.7532 -40.9383 -7.10543e-015 169.097 76.2291 -168.446 7.10543e-015 -40.1986 -2.66454e-015 11.0709 45.1364 -2.76993 0 -4.4182 9.239 4.41391e-032 3.18055e-015 -7.95139e-016 
39.8407 28.6797 39.1542 -9.66733e-009 64.8852 1.78055e-008 -7.10543e-015 8.7983 -4.7612 -0.410187 10.2057 -0.0236553 0 8.0291 0.4195 -0.83646 20.4114 0.0290519 0 9.9351 -2.2114 -0.836462 20.4114 0.0290523 0 22.3885 -0.4656 8.47357e-006 -0.724088 1.36151e-006 -0.0001 12.643 3.4389 -0.0679116 -0.761923 -0.0218405 2.2603 21.606 7.4023 -14.5632 -2.28998 -7.48039 13.5163 -1.1332 -5.0146 156.794 -53.0869 43.3821 -0.0995 -28.05 -0.2431 3.36491 -15.2147 10.0322 0.0679 -23.3996 -0.1402 59.1037 -8.23036 6.37998 0.7932 -9.069 2.5189 3.10118e-006 2.08915e-006 2.31414e-006 -0.8272 -3.3923 0.5977 -3.18055e-015 0 -0 -0.5649 -2.3158 0.4082 1.797e-006 -4.7529e-007 2.46262e-007 0.9159 -9.2044 0.2193 3.10118e-006 2.08915e-006 2.31414e-006 0.0117 -4.1944 -0.0248 -0.0127736 0.00232319 8.76165e-005 0.0071 -2.3249 -0.0142 -6.21814e-006 -1.32112e-006 -2.03617e-006 0.6113 -8.7231 -2.0637 3.10118e-006 2.08915e-006 2.31414e-006 -0.1927 -3.8059 -0.2383 -0.0160481 0.00299005 0.000855811 -0.1091 -2.1688 -0.1362 4.75969e-007 -2.38026e-007 7.70875e-007 -0.6151 -8.0947 -3.5641 3.10118e-006 2.08915e-006 2.31414e-006 -0.4882 -2.341 -0.6462 -0.0126109 0.00312914 0.00283126 -0.3575 -1.7167 -0.4742 8.56244e-007 -1.23147e-005 -3.88766e-006 -1.42 -1.8761 1.4223 3.10118e-006 2.08915e-006 2.31414e-006 -1.1471 -3.4929 2.6334 -3.18055e-015 0 -0 -0.823 -2.3 1.6571 1.797e-006 -4.7529e-007 2.46262e-007 -2.2603 21.606 7.4023 13.6021 -2.02681 2.15947 -13.5187 -1.1334 -5.0155 -162.323 -53.0612 -51.4885 0.0994 -28.0499 -0.2431 -3.20345 -15.0472 -10.3174 -0.0679 -23.3996 -0.1402 -59.127 -7.42732 -7.58726 -0.7932 -9.0691 2.5189 -4.4076e-006 2.71745e-006 -5.22741e-007 0.8272 -3.3923 0.5977 5.54872e-007 2.33624e-007 4.84695e-007 0.565 -2.3158 0.4082 -2.70186e-006 -1.05379e-006 -3.61523e-006 -0.916 -9.2044 0.2193 -4.4076e-006 2.71745e-006 -5.22741e-007 -0.0117 -4.1944 -0.0248 0.0129782 0.00231427 -8.07423e-005 -0.0071 -2.3249 -0.0142 -1.87021e-006 -1.25674e-006 -2.88825e-006 -0.6113 -8.7231 -2.0637 -4.4076e-006 2.71745e-006 -5.22741e-007 0.1927 -3.8059 -0.2383 0.016346 0.00303248 -0.000872671 0.1091 -2.1688 -0.1362 3.42578e-006 -1.20135e-006 2.66519e-006 0.6151 -8.0947 -3.564 -4.4076e-006 2.71745e-006 -5.22741e-007 0.4882 -2.341 -0.6462 0.0146201 0.00368896 -0.00327026 0.3574 -1.7166 -0.4742 -3.36753e-006 1.25424e-005 -1.27066e-005 1.4199 -1.8761 1.4221 -4.4076e-006 2.71745e-006 -5.22741e-007 1.1472 -3.4929 2.6336 5.54872e-007 2.33624e-007 4.84695e-007 0.8229 -2.3 1.6571 -2.70186e-006 -1.05379e-006 -3.61523e-006 -9.412 3.9771 -0.7758 -16.875 -67.1497 -22.0624 -0.7531 -40.938 -7.10543e-015 -168.692 76.2319 168.07 0 -40.1986 0 -11.0872 45.1486 2.74519 0 -4.4182 9.239 2.39573e-007 -2.80886e-006 3.51625e-007 9.4119 3.9773 -0.7758 16.7921 -67.16 21.8834 0.7532 -40.9383 0 169.096 76.2351 -168.44 -7.10543e-015 -40.1986 8.88178e-016 11.0708 45.1359 -2.7699 0 -4.4182 9.239 1.21272e-007 4.79983e-006 -2.62391e-007 
